<?xml version="1.0" encoding="UTF-8"?> <svg xmlns="http://www.w3.org/2000/svg" width="202" height="70" viewBox="0 0 202 70" fill="none"><path d="M86.0592 39.862C85.8597 39.4833 85.7376 39.2492 85.6134 39.0192C82.1343 32.5883 78.6491 26.1573 75.1741 19.7244C71.7784 13.4359 64.9892 0.859086 64.9892 0.859086L64.5292 0.0040715C64.5292 0.0040715 60.3579 0 58.2896 0C59.4805 2.21489 62.2593 7.4203 62.2593 7.4203C62.2593 7.4203 62.1107 7.67477 61.6791 8.42189C60.6103 10.2663 59.6169 12.1555 58.6051 14.0324C55.7469 19.3396 52.8989 24.6509 50.0387 29.9581C48.9129 32.0467 47.7749 34.1273 46.6329 36.2037C46.527 36.3951 46.4924 36.7432 46.1972 36.6883C45.8471 36.6231 45.9448 36.2709 45.9326 36.0165C45.9224 35.8129 45.9305 35.6093 45.9305 35.4057C45.9305 28.0831 45.9082 20.7585 45.957 13.4359C45.9631 12.4038 45.5743 12.1555 44.6765 12.1616C42.0321 12.1819 36.7412 12.1778 36.7412 12.1778L35.8577 12.188V14.0935L36.3747 14.0833C36.3747 14.0833 36.3992 14.6106 36.4012 14.9261C36.4073 17.5034 36.3829 20.0806 36.4195 22.6558C36.4277 23.2829 36.2607 23.4559 35.6276 23.4457C33.3557 23.405 31.0838 23.4152 28.8119 23.4355C27.3197 23.4498 26.5238 24.2376 26.4199 25.6362C26.3446 26.6256 26.3996 33.883 26.3996 33.883L25.9599 33.8972L25.9049 38.2069L25.9171 38.9011L27.1162 38.8604C27.1162 38.8604 27.1223 38.3392 27.106 38.0542C27.0062 36.2689 27.0816 34.5324 28.1076 32.9628C30.0029 30.0639 33.7507 30.0945 35.5849 33.0321C36.3462 34.2515 36.6944 35.5951 36.562 37.0079C36.4664 38.0359 36.8369 38.2578 37.7916 38.2049C39.2798 38.1214 40.774 38.1764 42.2662 38.1886C42.5756 38.1906 42.9156 38.0746 43.0785 38.5632C43.4205 39.5811 44.2327 39.9007 45.2445 39.864C46.865 39.805 48.4874 39.7439 50.1099 39.7256C50.5863 39.7195 50.7471 39.4508 50.9222 39.1067C51.4332 38.1133 51.993 37.1402 52.4694 36.1305C52.7503 35.534 53.0964 35.2734 53.7885 35.308C55.0405 35.3711 56.3007 35.2653 57.5506 35.3447C58.5461 35.4078 59.0326 35.1675 59.397 34.1069C60.4841 30.9434 63.6497 29.8889 66.2432 31.6905C67.1715 32.3358 67.6886 33.2743 68.0937 34.3024C68.2566 34.7156 68.1202 35.3609 68.9304 35.3447C69.6837 35.3304 69.5412 34.736 69.6898 34.3492C69.9341 33.71 70.2068 33.0768 70.6262 32.5536C71.6197 31.3139 72.9103 30.6726 74.541 30.8599C74.8422 30.8945 75.1293 30.9047 75.3044 31.2447C76.2551 33.1033 78.1259 36.8328 78.1259 36.8328C78.1198 36.8308 79.044 38.498 79.5428 39.3164C79.6955 39.5668 79.7728 39.8681 80.182 39.864C82.0956 39.8477 84.0092 39.8579 86.0592 39.8579V39.862ZM42.0199 22.151C40.7333 22.1225 39.4467 22.1184 38.1601 22.151C37.6451 22.1652 37.529 21.9922 37.5758 21.5056C37.7977 19.25 38.0013 16.9924 38.1825 14.7327C38.2171 14.291 38.3861 14.1525 38.8054 14.1586C39.8885 14.1749 40.9735 14.1871 42.0565 14.1525C42.5838 14.1362 42.6652 14.3765 42.655 14.8223C42.6489 15.1012 42.6469 15.3801 42.6449 15.659C42.6387 16.4977 42.6489 17.3344 42.6489 18.1731C42.6489 19.0119 42.6367 19.8485 42.6428 20.6873C42.6449 20.9662 42.651 21.2451 42.6591 21.524C42.6734 22.0207 42.4983 22.1571 42.0199 22.1469V22.151ZM74.2437 29.4267L56.1663 29.3005C56.1663 29.3005 56.1541 29.3188 56.4493 28.7712C59.3075 23.4376 62.2043 18.1222 65.1948 12.5809C68.2383 18.2525 74.1257 29.2191 74.1257 29.2191L74.2437 29.4247V29.4267Z" fill="black"></path><path d="M113.302 43.7686L120.761 43.736C120.761 43.736 120.748 42.0138 120.748 41.1811C120.763 30.0252 120.748 18.8673 120.775 7.71141C120.775 6.92154 120.775 6.68947 120.775 6.68947H113.466C113.466 6.68947 113.452 6.86658 113.458 7.79081C113.501 15.3862 113.483 22.9816 113.483 30.579C113.483 30.9291 113.483 31.2793 113.483 31.6294C112.204 30.1922 111.166 28.6979 110.093 27.2281C105.497 20.9316 100.851 14.6696 96.3194 8.32825C95.4135 7.05794 95.2058 6.76479 95.2058 6.76479L87.2725 6.84622C87.2725 6.84622 87.242 8.8209 87.242 9.85709C87.2277 20.8094 87.242 31.7638 87.2114 42.7161C87.2094 43.5793 87.2277 43.7584 87.2277 43.7584H94.4872C94.4872 43.7584 94.473 43.5487 94.4689 42.7568C94.4384 35.025 94.4485 27.2933 94.4567 19.5615C94.4567 19.2093 94.3529 18.8347 94.6236 18.3624C94.9168 18.7533 95.1427 19.0465 95.3626 19.3457C101.16 27.2403 106.962 35.1329 112.744 43.0418C113.122 43.5609 113.304 43.7706 113.304 43.7706L113.302 43.7686Z" fill="black"></path><path d="M157.882 43.736C157.825 43.51 157.716 43.3451 157.659 43.1904C153.243 31.2548 148.821 19.3193 144.422 7.37755C144.216 6.81772 144.157 6.69761 144.157 6.69761L135.408 6.68947C135.408 6.68947 135.347 6.90729 135.052 7.73177C132.098 15.9501 129.091 24.1501 126.1 32.3562C124.736 36.0999 123.377 39.8477 121.962 43.736C124.519 43.736 130.162 43.7503 130.162 43.7503C130.162 43.7503 130.213 43.565 130.384 42.9726C130.992 40.8575 131.682 38.7668 132.289 36.6516C132.472 36.0185 132.544 35.8292 132.544 35.8292H146.362C146.362 35.8292 146.435 35.99 146.665 36.6699C147.394 38.8176 148.215 40.9328 148.994 43.0622C149.123 43.4103 149.241 43.7462 149.241 43.7462C149.241 43.7462 155.148 43.736 157.878 43.736H157.882ZM144.607 29.6894L134.708 29.6934C134.708 29.6934 134.736 29.5448 134.99 28.7448C136.269 24.714 139.255 14.5047 139.467 13.4278C140.074 15.3455 143.18 25.6077 144.292 28.8018C144.569 29.5977 144.607 29.6894 144.607 29.6894Z" fill="black"></path><path d="M27.5131 43.734C27.2465 43.278 27.0734 42.9624 26.8821 42.6571C23.0406 36.5519 19.2032 30.4426 15.3394 24.3496C15.0096 23.8284 14.9281 23.4824 15.3292 22.9347C18.7045 18.3523 22.041 13.7413 25.3899 9.13847C25.9334 8.39135 26.4668 7.63813 27.1162 6.73629C24.2783 6.73629 21.6766 6.74443 19.075 6.72815C18.6556 6.72611 18.4866 6.98465 18.2953 7.26762C15.49 11.4226 12.6827 15.5775 9.87338 19.7284C9.09165 20.8827 8.29771 22.0288 7.50987 23.179C7.4427 23.1546 7.37552 23.1322 7.3063 23.1078V22.5276C7.3063 17.5787 7.29001 12.6298 7.32462 7.68088C7.33073 6.9134 7.3348 6.71797 7.3348 6.71797L0.0203575 6.72204C0.0203575 6.72204 0 6.85844 0 7.55466C0.0223932 19.3498 0.024429 31.1469 0 42.9421C0 43.6709 0.00814299 43.7462 0.00814299 43.7462L7.33684 43.7543C7.33684 43.7543 7.33277 43.563 7.32666 42.8016C7.28798 38.1235 7.30834 33.4453 7.30834 28.7692C7.30834 27.4582 7.30834 26.1472 7.30834 24.8341L7.51395 24.7588C7.65441 24.9827 7.79895 25.2066 7.93331 25.4346C11.3778 31.265 14.8182 37.0995 18.2749 42.9238C18.4642 43.2434 18.5273 43.734 19.0689 43.734C21.8314 43.734 24.5959 43.734 27.5111 43.734H27.5131Z" fill="black"></path><path d="M197.777 25.7196C196.089 24.2193 194.184 23.0711 192.128 22.1571C190.456 21.414 188.779 20.6832 187.234 19.6959C185.778 18.7635 185.18 17.3649 185.361 15.6875C185.546 13.9754 186.554 12.8232 188.164 12.2756C190.483 11.4877 193.72 11.8155 195.304 14.5698C195.568 15.0299 195.582 15.0381 195.582 15.0381L200.13 10.6205C200.13 10.6205 200.053 10.5167 199.752 10.1523C198.616 8.77407 197.333 7.56891 195.67 6.87676C191.861 5.29091 188.009 5.5067 184.28 7.03351C176.499 10.2174 176.072 19.8221 181.603 24.0178C183.093 25.1476 184.614 26.198 186.269 27.0714C188.156 28.0669 190.127 28.9076 191.896 30.1169C193.028 30.8925 193.874 31.8411 193.929 33.3272C194.021 35.7722 192.6 37.6695 190.208 38.213C186.521 39.0497 183.759 37.7631 181.587 34.111C180.29 35.6337 177.405 39.064 177.405 39.064C177.405 39.064 177.519 39.2431 177.757 39.6177C179.099 41.743 180.998 43.1599 183.362 43.9233C186.639 44.9839 189.974 45.0084 193.282 44.1004C197.26 43.0093 199.929 40.4707 200.91 36.4358C201.914 32.3155 201.057 28.6409 197.771 25.7217L197.777 25.7196Z" fill="black"></path><path d="M161.148 25.2148C161.148 29.612 161.156 34.0092 161.148 38.4064C161.144 39.8722 161.14 41.3379 161.129 42.8036C161.125 43.5671 161.129 43.7543 161.129 43.7543L168.821 43.7462C168.821 43.7462 168.804 43.6444 168.804 42.9787C168.784 31.151 168.784 19.3233 168.802 7.49766C168.802 6.87269 168.784 6.69354 168.784 6.69354L161.144 6.68743C161.144 6.68743 161.123 6.8564 161.129 7.7277C161.17 13.556 161.15 19.3844 161.152 25.2148H161.148Z" fill="black"></path><path d="M161.148 25.2148C161.148 29.612 161.156 34.0092 161.148 38.4064C161.158 34.0092 161.148 29.612 161.148 25.2148C161.148 19.3864 161.168 13.556 161.125 7.7277C161.166 13.556 161.146 19.3844 161.148 25.2148Z" fill="black"></path><path d="M128.729 53.2877L123.199 53.2735C123.199 53.2735 123.136 53.5402 122.88 54.2954C121.85 57.3368 120.757 60.3559 119.582 63.6843C119.313 62.9759 119.142 62.5463 118.987 62.1127C118.039 59.4316 117.078 56.7567 116.162 54.0654C115.97 53.5015 115.893 53.2816 115.893 53.2816H110.393C110.393 53.2816 110.382 53.5259 110.388 54.2629C110.421 58.4341 110.393 62.6033 110.415 66.7746C110.419 67.6764 110.435 69.6104 110.435 69.6104L114.104 69.5778C114.104 69.5778 114.102 69.3478 114.094 68.7106C114.063 66.0315 114.081 63.3525 114.081 60.6734C114.081 59.7859 114.081 58.9003 114.081 58.0127C115.331 61.2679 116.412 64.5332 117.491 67.8006C117.699 68.4296 118.045 69.5941 118.045 69.5941L120.96 69.5839L124.671 58.5868L125.076 57.6483C125.076 57.6483 125.095 65.1093 125.06 68.6699C125.054 69.3681 125.064 69.5798 125.064 69.5798L128.759 69.5758C128.759 69.5758 128.765 69.4536 128.763 68.849C128.741 63.8981 128.741 58.9471 128.763 53.9982C128.765 53.3712 128.731 53.2898 128.731 53.2898L128.729 53.2877Z" fill="#F30000"></path><path d="M52.5569 53.2735L48.8213 53.2898C48.8213 53.2898 48.7989 53.5096 48.8071 54.2059C48.8417 57.1882 48.8274 60.1726 48.8132 63.1571C48.8132 63.4176 48.8213 64.1647 48.8213 64.1647C48.8213 64.1647 45.5885 59.0408 44.0699 56.5958C43.392 55.5067 41.912 53.2491 41.912 53.2491L37.1137 53.2837C37.1137 53.2837 37.0995 53.471 37.1076 54.2873C37.1483 58.4911 37.1137 62.6949 37.1361 66.8988C37.1402 67.7639 37.1605 69.6124 37.1605 69.6124L40.829 69.5798C40.829 69.5798 40.8351 69.4088 40.8229 68.5864C40.774 65.2661 40.8025 61.9437 40.8025 58.6214C40.8636 58.5949 40.9267 58.5664 40.9878 58.54C42.5736 61.1294 47.8197 69.3803 47.8197 69.3803L52.5691 69.3885C52.5691 69.3885 52.5752 69.3803 52.5691 68.623C52.5345 64.4538 52.5427 56.1134 52.5427 56.1134L52.5569 53.2776V53.2735Z" fill="#F30000"></path><path d="M140.283 52.9071C135.039 52.8277 131.524 56.3373 131.54 61.4735C131.558 66.5669 135.043 69.9666 140.257 69.9727C145.428 69.9768 149.072 66.5384 149.031 61.502C148.988 56.2701 145.692 52.9905 140.281 52.9091L140.283 52.9071ZM140.281 66.5344C137.38 66.5364 135.292 64.3765 135.314 61.4002C135.337 58.4626 137.415 56.3312 140.257 56.3292C143.148 56.3292 145.232 58.4911 145.218 61.4755C145.204 64.4213 143.146 66.5323 140.281 66.5344Z" fill="#F30000"></path><path d="M90.1307 62.4445C91.057 62.1921 91.8733 61.5977 92.1481 60.6918C93.7218 55.5271 88.5347 53.2959 88.5347 53.2959L80.2553 53.2816C80.2553 53.2816 80.2553 53.5015 80.2594 54.2527C80.294 58.4239 80.2655 62.5952 80.2858 66.7664C80.2899 67.6683 80.296 69.5697 80.296 69.5697L83.9767 69.5758C83.9767 69.5758 83.9726 69.3844 83.9624 68.8205C83.9298 67.2265 83.9339 63.0553 83.9339 63.0553C83.9339 63.0553 84.1375 63.0329 84.9009 63.0716C85.4281 63.098 85.6826 63.3036 85.9025 63.7372C86.7982 65.4859 87.7224 67.2204 88.6263 68.965C88.8034 69.307 88.9296 69.5798 88.9296 69.5798C88.9296 69.5798 91.9324 69.5697 93.3899 69.5697C92.1135 67.4403 90.9694 65.4839 89.7724 63.5642C89.5627 63.2263 89.2859 62.758 89.2859 62.758C89.2859 62.758 89.7867 62.5443 90.1287 62.4506L90.1307 62.4445ZM87.6206 59.8042C86.5885 60.0912 83.9644 59.9976 83.9644 59.9976C83.9644 59.9976 83.9359 59.8591 83.9502 59.4683C83.9665 59.0286 83.9543 58.5888 83.9522 58.1491C83.9522 56.7058 83.9624 56.4065 83.9624 56.4065C83.9624 56.4065 85.3996 56.4106 85.7335 56.4208C86.4073 56.4432 87.0812 56.4798 87.7346 56.6976C88.5204 56.9582 88.8767 57.4895 88.8604 58.2977C88.8421 59.1263 88.3942 59.5904 87.6186 59.8062L87.6206 59.8042Z" fill="#F30000"></path><path d="M64.2869 61.6099C64.0039 61.3066 63.7047 60.8424 63.7047 60.8424C63.7047 60.8424 64.0609 60.4108 64.3256 60.1462C66.2819 58.1715 68.1894 56.148 70.1051 54.1305C70.3168 53.9066 70.9458 53.2959 70.9458 53.2959L65.9562 53.2776C65.9562 53.2776 65.7323 53.5361 65.2213 54.1041C63.725 55.7673 62.1819 57.3898 60.6449 59.0143C60.4556 59.2138 59.8815 59.6739 59.8815 59.6739C59.8815 59.6739 59.8612 55.8935 59.8937 54.102C59.9039 53.4974 59.8999 53.2837 59.8999 53.2837L56.1256 53.2877C56.1256 53.2877 56.1419 53.4445 56.1439 53.9819C56.1582 58.9655 56.1541 63.951 56.148 68.9345C56.148 69.3274 56.148 69.5778 56.148 69.5778L59.8958 69.5574C59.8958 69.5574 59.8795 68.1935 59.8795 66.7766C59.8795 65.5552 59.8734 64.3357 59.8856 63.1143C59.8876 62.87 59.8856 62.1351 59.8856 62.1351C59.8856 62.1351 60.5798 62.9046 60.818 63.1815C62.4751 65.1093 64.1301 67.0413 65.7872 68.9691C66.0478 69.2724 66.2779 69.5778 66.2779 69.5778C66.2779 69.5778 69.7366 69.5676 71.4466 69.5676C71.1026 69.1503 70.9194 68.9121 70.7178 68.6882C68.5823 66.3226 66.4651 63.9388 64.2889 61.6099H64.2869Z" fill="#F30000"></path><path d="M107.162 66.1231C107.162 66.1231 103.168 66.1394 101.608 66.1394C99.2875 66.1394 99.3527 66.1333 99.3527 66.1333L99.3486 63.0125L106.382 63.0247L106.341 59.5843C106.341 59.5843 102.811 59.5945 101.421 59.5945C99.2326 59.5945 99.3547 59.5925 99.3547 59.5925L99.3486 56.7221C99.3486 56.7221 102.85 56.7302 104.24 56.7302C106.791 56.7302 106.775 56.7465 106.775 56.7465L106.767 53.2816H95.613C95.613 53.2816 95.6109 53.5056 95.6211 54.2059C95.6395 55.409 95.6435 56.6121 95.6435 57.8173C95.6435 59.0204 95.6374 60.2256 95.6374 61.4287C95.6374 62.5809 95.6496 63.7352 95.6517 64.8874C95.6537 66.0397 95.6496 67.1919 95.615 68.3441C95.5865 69.2908 95.5865 69.5961 95.5865 69.5961C95.5865 69.5961 102.038 69.5676 104.65 69.5676C107.205 69.5676 107.186 69.5819 107.186 69.5819L107.164 66.1231H107.162Z" fill="#F30000"></path><path d="M33.5206 53.2918L29.8237 53.2776C29.8237 53.2776 29.8054 53.4506 29.8237 54.3239C29.8766 57.3043 29.8705 60.2866 29.8237 63.267C29.7932 65.2742 28.3417 66.63 26.4566 66.5262C24.7954 66.4346 23.5434 65.0829 23.521 63.2364C23.4844 60.1869 23.4905 57.1373 23.517 54.0898C23.5231 53.471 23.521 53.2857 23.521 53.2857H19.7997C19.7997 53.2857 19.7956 53.4404 19.8139 54.1244C19.8608 55.749 19.8282 57.3755 19.8282 59.0021H19.8404C19.8404 60.5269 19.8058 62.0516 19.8465 63.5764C19.9483 67.2326 22.0634 69.5452 25.6749 69.9157C29.9988 70.3595 33.657 68.1487 33.5308 62.9352C33.4738 60.5981 33.5206 53.2898 33.5206 53.2898V53.2918Z" fill="#F30000"></path><path d="M176.165 55.183C175.575 53.8191 175.367 53.3427 175.367 53.3427L172.261 53.2776C172.261 53.2776 172.153 53.5341 171.862 54.2323C170.638 57.1699 169.344 60.0749 168.08 62.9962C167.233 64.9526 166.394 66.913 165.557 68.8755C165.435 69.1605 165.254 69.5615 165.254 69.5615L169.386 69.5697L170.453 66.7624L170.702 66.1231L176.819 66.1374L178.242 69.5289L182.415 69.5717C182.415 69.5717 182.407 69.5717 181.906 68.4154C179.993 64.006 178.077 59.5986 176.165 55.1871V55.183ZM171.872 63.0023C172.462 61.4837 173.028 60.0322 173.708 58.2896C174.392 60.0281 174.964 61.4796 175.563 63.0023H171.872Z" fill="#F30000"></path><path d="M162.243 53.2857C162.243 53.2857 162.172 53.4567 162.015 53.9066C161.669 54.896 161.276 55.8691 160.899 56.8483C160.04 59.0774 159.181 61.3066 158.233 63.7657C157.231 61.1071 156.335 58.6825 155.401 56.2701C155.024 55.2991 154.198 53.2267 154.198 53.2267L150.037 53.2837C150.037 53.2837 150.116 53.5076 150.434 54.2853C152.248 58.7354 154.017 63.2018 155.8 67.6642C156.225 68.7289 156.594 69.5961 156.594 69.5961L159.55 69.588C159.55 69.588 159.647 69.3559 159.898 68.7309C161.168 65.5572 162.481 62.4038 163.784 59.2423C164.58 57.3083 165.382 55.3785 166.241 53.2979C164.997 53.2979 162.245 53.2877 162.245 53.2877L162.243 53.2857Z" fill="#F30000"></path><path d="M194.703 66.1252L188.093 66.1577C188.093 66.1577 188.077 65.887 188.089 65.0666C188.136 62.0862 188.121 59.1039 188.099 56.1215C188.093 55.2156 188.079 53.2816 188.079 53.2816L184.315 53.2877C184.315 53.2877 184.349 53.4832 184.359 54.1957C184.37 54.7962 184.376 55.3988 184.378 55.9994C184.388 57.803 184.374 59.6087 184.374 61.4124C184.374 62.0231 184.374 62.6318 184.376 63.2426C184.38 65.0727 184.386 66.9028 184.359 68.7309C184.349 69.4027 184.368 69.5819 184.368 69.5819L194.713 69.5676C194.713 69.5676 194.719 69.5676 194.699 66.9619C194.693 66.2656 194.699 66.1252 194.699 66.1252H194.703Z" fill="#F30000"></path><path d="M12.7865 53.2755C12.7865 53.2755 12.7417 53.5544 12.7499 54.328C12.7825 57.5486 12.756 60.7691 12.758 63.9897C12.758 64.5699 12.7255 65.146 12.5137 65.6916C12.0679 66.8458 10.6551 67.1186 10.0383 66.0682C9.56395 65.2641 9.43773 65.1073 9.43773 65.1073L6.15814 66.2697C6.15814 66.2697 6.08485 66.1557 6.61415 67.3548C7.50173 69.364 9.7268 70.329 12.4873 69.8994C14.7999 69.5412 16.2168 68.0693 16.3552 65.6284C16.4631 63.7515 16.4387 53.2633 16.4387 53.2633L12.7825 53.2776L12.7865 53.2755Z" fill="#F30000"></path><path d="M66.2331 43.0093C68.2586 40.8066 68.1243 36.7208 65.9542 34.6647C64.4599 33.2478 62.4181 33.2499 60.9381 34.6932C59.7533 35.8475 59.2871 37.299 59.2688 38.9194C59.2606 40.4279 59.6352 41.8082 60.6449 42.9604C62.245 44.7865 64.5841 44.7966 66.231 43.0072L66.2331 43.0093Z" fill="black"></path><path d="M29.4105 34.679C28.1931 35.8516 27.7269 37.3336 27.7167 38.4655C27.7289 40.6763 28.2745 42.14 29.2761 43.1538C30.8579 44.758 32.9974 44.7356 34.5568 43.0988C36.6435 40.9084 36.5661 36.7962 34.398 34.6973C32.9018 33.2478 30.9128 33.2316 29.4105 34.679Z" fill="black"></path><path d="M77.163 35.646C76.2978 34.4428 75.3166 33.486 73.7796 33.6306C72.1999 33.7771 71.1331 34.7095 70.4878 36.1508C69.6185 38.097 69.6877 40.0248 70.5366 41.9527C71.7255 44.6562 74.9277 45.1733 76.8495 42.9339C78.0404 41.5455 78.3946 39.8966 78.1727 38.0929C78.1218 37.6797 77.79 36.5152 77.163 35.646Z" fill="black"></path><path d="M176.025 6.31082C176.013 7.34498 176.064 8.38321 175.87 9.40516C176.064 8.38118 176.011 7.34498 176.025 6.31082C176.025 5.53316 175.999 4.75347 176.033 3.97582C175.997 4.75347 176.023 5.53316 176.023 6.31082H176.025Z" fill="black"></path><path d="M153.121 11.9987C153.121 13.4563 153.131 13.4482 153.131 13.4482L157.314 13.4034L157.327 9.34612L155.256 9.31355C155.256 9.31355 155.267 9.12829 155.267 8.45853C155.267 5.76117 157.557 4.67204 157.557 4.67204L156.293 3.30198C156.293 3.30198 153.131 5.00591 153.131 7.8356C153.131 8.74965 153.127 9.65759 153.121 10.5716C153.121 11.046 153.121 11.5203 153.121 11.9946V11.9987Z" fill="black"></path><path d="M176.035 4.75347C176.035 3.29588 176.025 3.30402 176.025 3.30402L171.842 3.34881L171.829 7.40605L173.9 7.43862C173.9 7.43862 173.89 7.62388 173.89 8.29364C173.89 10.991 171.599 12.0801 171.599 12.0801L172.864 13.4502C172.864 13.4502 176.025 11.7463 176.025 8.91658C176.025 8.00253 176.029 7.09458 176.035 6.18053C176.035 5.7062 176.035 5.23187 176.035 4.75754V4.75347Z" fill="black"></path></svg> 